<svg xmlns="http://www.w3.org/2000/svg" width="430.09" height="153.15" viewBox="0 0 430.09 153.15"><defs><style>.cls-1{fill:#515151;}</style></defs><g id="Layer_2" data-name="Layer 2"><g id="Capa_1" data-name="Capa 1"><path class="cls-1" d="M0,123.89V72Q0,60.31,7.66,52.65T27,45H58.11q11.67,0,19.37,7.66T85.19,72v37.33H17.65v10.44q0,14.51,14.5,14.5H81v16.64H27q-11.67,0-19.32-7.66T0,123.89ZM17.65,92.75H67.44V76.12q0-14.49-14.5-14.6H32.15q-14.5,0-14.5,14.6ZM238.4,66.12q-3.1-11-10.38-16.19t-20.15-5.2a70.82,70.82,0,0,0-20,2.91,91.06,91.06,0,0,0-18.17,7.48,23.83,23.83,0,0,0-10.81-7.79,41.84,41.84,0,0,0-14.95-2.6A46.74,46.74,0,0,0,129.36,47a78.48,78.48,0,0,0-15,6.85V47H95.3V150.87h19.32V68.62L117.94,67a57.84,57.84,0,0,1,10.28-3.33,52.13,52.13,0,0,1,11.94-1.45c5.26,0,9.25,1.07,11.94,3.22s4.54,5.68,5.51,10.59,1.46,12,1.46,21.29v53.59h19.52v-54q0-19.32-2.29-28.25L180,67a59.35,59.35,0,0,1,11-3.43,56.83,56.83,0,0,1,12-1.35q7.89,0,11.94,3.22t5.6,10.38Q222.2,83,222.21,96v54.84h19.31V95.62Q241.52,77.14,238.4,66.12ZM427,65.92q-3.12-11-10.59-16.1t-20.77-5.09a60,60,0,0,0-14.95,1.87,96.28,96.28,0,0,0-16.21,6V0H345.14V150.87h19.31V71.11a5.31,5.31,0,0,1,3.53-5h0a67.64,67.64,0,0,1,22-3.94c5.68,0,10,1,13,3.12s5,5.47,6.13,10.17S410.77,87,410.77,96v54.84h19.32V95.62Q430.09,76.92,427,65.92ZM332.26,78.79q0-17.66-8.31-25.86t-26.58-8.2a178.58,178.58,0,0,0-40.92,5.2l.62,14.12a377.38,377.38,0,0,1,40.3-2.49q7.68,0,11.63,4t3.94,13.19v8.1l-29.49,2.7q-17.24,1.68-25.13,8.83T250.43,121q0,15.57,7.68,23.88t22.43,8.31c10.51,0,26.42-5.7,37.1-10.13l1.65,7.84h12.95Zm-19.32,52.59L308.58,133A77.27,77.27,0,0,1,284.07,137q-13.9,0-13.91-16.62,0-7.89,3.84-11.94c2.57-2.7,6.54-4.33,11.94-4.88l27-2.49Z"/></g></g></svg>