<?xml version="1.0" encoding="UTF-8" standalone="no"?>
<svg
   width="783.37"
   height="230.65"
   viewBox="0 0 783.37 230.65"
   version="1.1"
   id="svg17"
   sodipodi:docname="logotype.svg"
   inkscape:version="1.2.1 (1:1.2.1+202210291244+9c6d41e410)"
   xmlns:inkscape="http://www.inkscape.org/namespaces/inkscape"
   xmlns:sodipodi="http://sodipodi.sourceforge.net/DTD/sodipodi-0.dtd"
   xmlns="http://www.w3.org/2000/svg"
   xmlns:svg="http://www.w3.org/2000/svg">
  <sodipodi:namedview
     id="namedview19"
     pagecolor="#ffffff"
     bordercolor="#eeeeee"
     borderopacity="1"
     inkscape:showpageshadow="0"
     inkscape:pageopacity="0"
     inkscape:pagecheckerboard="0"
     inkscape:deskcolor="#505050"
     showgrid="false"
     inkscape:zoom="1.1066455"
     inkscape:cx="366.87447"
     inkscape:cy="97.140408"
     inkscape:window-width="1366"
     inkscape:window-height="707"
     inkscape:window-x="0"
     inkscape:window-y="30"
     inkscape:window-maximized="1"
     inkscape:current-layer="svg17" />
  <defs
     id="defs10">
    <style
       id="style2">
			.logo{fill:url(#logo-gradient);}
			.logoname,.slogan{fill:#515151;}
			.slogan{font-weight:500;font-size:30.32px;}
		</style>
    <linearGradient
       id="logo-gradient"
       y1="115.37"
       x2="306.94"
       y2="115.37"
       gradientUnits="userSpaceOnUse">
      <stop
         offset="0.01"
         stop-color="#ff3600"
         id="stop4" />
      <stop
         offset="0.18"
         stop-color="#fe4206"
         id="stop6" />
      <stop
         offset="0.5"
         stop-color="#fb6314"
         id="stop8" />
      <stop
         offset="0.94"
         stop-color="#f6982c"
         id="stop10" />
      <stop
         offset="1"
         stop-color="#f5a130"
         id="stop12" />
    </linearGradient>
  </defs>
  <g
     id="logotype"
     data-name="Layer 2">
    <path
       class="logo"
       d="M33,230.65l36.24-47.27a19.46,19.46,0,0,1,15.46-7.62h80.1l12.85-24.65-12.85-19.61-89-.16L64.56,148.77a15.22,15.22,0,0,1-21.19,2.83L6.06,123.49A15.22,15.22,0,0,1,2.48,103l5.75-8.81L44.94,39a20.43,20.43,0,0,1,4.37-4.72h0a20,20,0,0,1,5.75-3.16L139.68,1.22a19.85,19.85,0,0,1,6-1.12h0a19.81,19.81,0,0,1,6,.75L242,26.5A20.27,20.27,0,0,1,247.48,29h0a20.54,20.54,0,0,1,3.23,2.58l50.4,49.34a18.61,18.61,0,0,1,4,5.78h0a18.7,18.7,0,0,1,1.61,7.51l.22,66.43a15.47,15.47,0,0,1-2.19,8h0a15.49,15.49,0,0,1-6.78,6.11l-29.47,13.7a15.62,15.62,0,0,1-9.76,1.14h0a15.68,15.68,0,0,1-9.78-6.5l-29.54-43.22,34.47,23a18.74,18.74,0,0,0,18.24,1.47l14.33-6.56V95.13L236.83,46.26,146.29,20.54,62,50.27l-39.57,60,29.11,22,14-21.31H161a27.25,27.25,0,0,1,7.51,1.06h0a27.16,27.16,0,0,1,15.19,11.18l10.74,16.33A21.59,21.59,0,0,1,198,151.41h0A21.7,21.7,0,0,1,195.25,162l-12,21.4a24.62,24.62,0,0,1-15,11.74h0a24.85,24.85,0,0,1-6.48.86l-64.93,0A44.71,44.71,0,0,0,71.15,204Z"
       id="path17" />
    <path
       class="logoname"
       d="M352.51,123.89V72q0-11.65,7.66-19.31T379.49,45h31.13q11.65,0,19.37,7.66T437.7,72v37.33H370.16v10.44q0,14.51,14.5,14.5h48.88v16.64H379.49q-11.67,0-19.32-7.66T352.51,123.89Zm17.65-31.14H420V76.12q0-14.49-14.5-14.6H384.66q-14.51,0-14.5,14.6ZM590.91,66.12q-3.1-11-10.38-16.19t-20.15-5.2a70.76,70.76,0,0,0-20,2.91,91.06,91.06,0,0,0-18.17,7.48,23.83,23.83,0,0,0-10.81-7.79,41.84,41.84,0,0,0-14.95-2.6A46.74,46.74,0,0,0,481.87,47a78.21,78.21,0,0,0-14.95,6.85V47H447.81V150.87h19.32V68.62L470.45,67a57.84,57.84,0,0,1,10.28-3.33,52.13,52.13,0,0,1,11.94-1.45c5.26,0,9.25,1.07,11.94,3.22s4.54,5.68,5.51,10.59,1.46,12,1.46,21.29v53.59H531.1v-54q0-19.32-2.29-28.25L532.55,67a59.35,59.35,0,0,1,11-3.43,56.83,56.83,0,0,1,12.05-1.35q7.89,0,11.94,3.22t5.6,10.38Q574.71,83,574.72,96v54.84H594V95.62Q594,77.14,590.91,66.12Zm188.57-.2q-3.12-11-10.59-16.1t-20.77-5.09a60,60,0,0,0-15,1.87,96.28,96.28,0,0,0-16.21,6V0H697.65V150.87H717V71.11a5.31,5.31,0,0,1,3.53-5h0a67.64,67.64,0,0,1,22-3.94c5.67,0,10,1,13,3.12s5,5.47,6.13,10.17S763.28,87,763.28,96v54.84H782.6V95.62Q782.6,76.92,779.48,65.92ZM684.77,78.79q0-17.66-8.31-25.86t-26.58-8.2A178.58,178.58,0,0,0,609,49.93l.62,14.12a377.38,377.38,0,0,1,40.3-2.49q7.68,0,11.63,4t3.94,13.19v8.1L636,89.59q-17.24,1.68-25.13,8.83T602.94,121q0,15.57,7.68,23.88t22.43,8.31c10.5,0,26.42-5.7,37.1-10.13l1.65,7.84h13Zm-19.32,52.59L661.09,133A77.27,77.27,0,0,1,636.58,137q-13.91,0-13.91-16.62,0-7.89,3.84-11.94t11.94-4.88l27-2.49Z"
       id="path19" />
    <path
       class="slogan"
       d="m 422.95218,0 v -2.4279687 h 6.81016 q 1.82098,0 1.82098,-1.8209766 0,-1.3916406 -1.82098,-1.8209765 l -3.33106,-0.7550391 q -1.64332,-0.3701172 -2.56121,-1.3472265 -0.91789,-0.9771094 -0.91789,-2.4427736 v -0.606992 q 0,-1.702539 1.11035,-2.812891 1.12516,-1.125156 2.8277,-1.125156 h 6.66211 v 1.67293 l -0.75504,0.755039 h -5.44812 q -1.82098,0 -1.82098,1.820976 0,1.391641 1.82098,1.820977 l 3.33105,0.755039 q 1.64332,0.3701172 2.56121,1.3472266 0.91789,0.9771093 0.91789,2.4427734 v 0.6069922 q 0,1.702539 -1.12515,2.8276952 Q 431.92382,0 430.22128,0 Z m -12.89606,0 v -20.622929 h 2.57601 v 11.6808978 h 3.64196 L 419.76799,-15.16 h 2.11707 v 1.362031 l -3.33105,5.9218753 3.64195,6.5140625 V 0 h -2.27992 l -3.64195,-6.5140624 h -3.64196 V 0 Z M 397.6338,-3.9380468 v -7.2839062 q 0,-1.702539 1.11035,-2.812891 Q 399.8693,-15.16 401.57184,-15.16 h 6.67692 v 1.67293 l -0.76985,0.755039 h -5.15203 q -2.11707,0 -2.11707,2.11707 v 6.069922 q 0,2.1170703 2.11707,2.1170703 h 5.92188 V 0 h -6.67692 q -1.70254,0 -2.82769,-1.1103516 -1.11035,-1.1251562 -1.11035,-2.8276952 z m -9.69825,1.8209765 h 1.51007 q 1.36203,0 2.1911,-0.8290625 0.84386,-0.8438672 0.84386,-2.2058984 V -6.676914 h -4.54503 q -2.11708,0 -2.13188,2.131875 v 0.2960937 q 0.0148,2.131875 2.13188,2.131875 z m -4.7079,-1.5248828 v -1.5100781 q 0,-1.702539 1.12516,-2.8128906 1.12516,-1.1251562 2.81289,-1.1251562 h 5.31488 v -1.524883 q 0,-2.11707 -2.13187,-2.11707 h -5.90707 V -15.16 h 6.67691 q 1.70254,0 2.81289,1.125156 1.12516,1.125157 1.12516,2.812891 V 0 h -1.82098 l -0.45894,-1.6729297 h -0.14805 q -0.0296,0.088828 -0.10363,0.2220703 -0.074,0.1184375 -0.38492,0.47375003 -0.2961,0.34050781 -0.66621,0.60699219 -0.35532,0.25167968 -0.97711,0.4589453 -0.6218,0.20726563 -1.34723,0.20726563 h -1.98383 q -1.70254,0 -2.82769,-1.11035155 -1.11036,-1.1251562 -1.11036,-2.8276953 z M 365.49045,0 v -21.229922 h 2.73887 v 9.104883 h 9.40098 v -9.104883 h 2.72406 V 0 h -2.72406 v -9.5490233 h -9.40098 V 0 Z M 342.1559,-4.2489453 v -2.2651171 q 0,-1.184375 0.41453,-2.087461 0.41453,-0.9178906 0.99191,-1.3472265 0.57739,-0.4441411 1.13996,-0.7106251 0.57739,-0.281289 0.97711,-0.340508 l 0.42934,-0.07402 v -0.148047 q -0.0592,-0.05922 -0.20727,-0.162852 -0.13324,-0.103632 -0.44414,-0.458945 -0.29609,-0.370117 -0.54777,-0.784648 -0.23688,-0.414532 -0.42934,-1.065938 -0.19246,-0.651406 -0.19246,-1.317617 v -1.658125 q 0,-2.057851 1.2436,-3.301445 1.24359,-1.258399 3.30144,-1.258399 h 6.36602 v 1.820977 l -0.75504,0.755039 h -5.00399 q -1.15476,0 -1.79136,0.681016 -0.63661,0.66621 -0.63661,1.909804 v 0.444141 q 0,0.755039 0.32571,1.495273 0.34051,0.72543 0.50336,0.917891 0.17765,0.192461 0.69582,0.769844 l 9.99316,11.0739058 V 0 h -2.41316 l -1.67293,-1.9690234 h -0.14805 q -0.0296,0.088828 -0.11844,0.2516797 -0.074,0.1480468 -0.41453,0.5477734 -0.3257,0.38492187 -0.72543,0.6958203 -0.38492,0.29609375 -1.11035,0.53296875 -0.72543,0.236875 -1.5841,0.236875 h -3.62715 q -2.05785,0 -3.31625,-1.24359374 -1.24359,-1.24359371 -1.24359,-3.30144531 z m 5.16683,1.9690234 h 2.41317 q 1.00672,0 1.61371,-0.518164 0.60699,-0.5329688 0.69582,-1.0807422 l 0.11844,-0.518164 -3.79,-4.0860938 h -1.05114 q -1.15476,0 -1.79136,0.666211 -0.63661,0.6662109 -0.63661,1.9098046 v 1.0511328 q 0,1.2435938 0.63661,1.9098047 0.6366,0.6662109 1.79136,0.6662109 z M 324.13622,0 v -2.4279687 h 6.81016 q 1.82098,0 1.82098,-1.8209766 0,-1.3916406 -1.82098,-1.8209765 l -3.33105,-0.7550391 q -1.64332,-0.3701172 -2.56122,-1.3472265 -0.91789,-0.9771094 -0.91789,-2.4427736 v -0.606992 q 0,-1.702539 1.11036,-2.812891 1.12515,-1.125156 2.82769,-1.125156 h 6.66211 v 1.67293 l -0.75504,0.755039 h -5.44812 q -1.82098,0 -1.82098,1.820976 0,1.391641 1.82098,1.820977 l 3.33105,0.755039 q 1.64332,0.3701172 2.56121,1.3472266 0.91789,0.9771093 0.91789,2.4427734 v 0.6069922 q 0,1.702539 -1.12515,2.8276952 Q 333.10786,0 331.40533,0 Z m -11.51923,-8.4830859 h 7.2691 v -2.4279691 q 0,-2.11707 -2.11707,-2.131875 h -3.03496 q -2.11707,0 -2.11707,2.131875 z m -2.57601,4.5450391 v -7.5800002 q 0,-1.702539 1.11035,-2.81289 1.12516,-1.125157 2.82769,-1.125157 h 4.54504 q 1.70254,0 2.8277,1.125157 1.12516,1.110351 1.12516,2.81289 v 5.4481252 h -9.85993 v 1.5248828 q 0,2.1170703 2.11707,2.1170703 h 7.13586 V 0 h -7.8909 q -1.70253,0 -2.82769,-1.1103516 -1.11035,-1.1251562 -1.11035,-2.8276952 z m -8.02601,0 V -12.732031 H 299.587 V -15.16 h 2.57602 l 0.90308,-4.545039 h 1.52489 V -15.16 h 4.08609 v 1.67293 l -0.75504,0.755039 h -3.33105 v 8.186992 q 0,2.1170703 2.11707,2.1170703 h 2.42797 V 0 h -3.18301 q -1.70254,0 -2.8277,-1.1103516 -1.11035,-1.1251562 -1.11035,-2.8276952 z m -10.9156,1.8209765 h 1.51008 q 1.36203,0 2.19109,-0.8290625 0.84387,-0.8438672 0.84387,-2.2058984 V -6.676914 h -4.54504 q -2.11707,0 -2.13187,2.131875 v 0.2960937 q 0.0148,2.131875 2.13187,2.131875 z m -4.70789,-1.5248828 v -1.5100781 q 0,-1.702539 1.12516,-2.8128906 1.12515,-1.1251562 2.81289,-1.1251562 h 5.31488 v -1.524883 q 0,-2.11707 -2.13187,-2.11707 h -5.90707 V -15.16 h 6.67691 q 1.70254,0 2.81289,1.125156 1.12516,1.125157 1.12516,2.812891 V 0 h -1.82098 l -0.45895,-1.6729297 h -0.14804 q -0.0296,0.088828 -0.10364,0.2220703 -0.074,0.1184375 -0.38492,0.47375003 -0.29609,0.34050781 -0.66621,0.60699219 -0.35531,0.25167968 -0.97711,0.4589453 -0.62179,0.20726563 -1.34722,0.20726563 h -1.98383 q -1.70254,0 -2.8277,-1.11035155 -1.11035,-1.1251562 -1.11035,-2.8276953 z M 281.54917,0 v -15.16 h 2.57601 V 0 Z m 0,-17.587969 v -3.331054 h 2.57601 v 3.331054 z m -12.42232,13.6499222 v -7.2839062 q 0,-1.702539 1.11035,-2.812891 1.12515,-1.125156 2.82769,-1.125156 h 6.67692 v 1.67293 l -0.76985,0.755039 h -5.15203 q -2.11707,0 -2.11707,2.11707 v 6.069922 q 0,2.1170703 2.11707,2.1170703 h 5.92188 V 0 h -6.67692 q -1.70254,0 -2.82769,-1.1103516 -1.11035,-1.1251562 -1.11035,-2.8276952 z m -15.14638,0.2960937 v -7.8760939 q 0,-1.702539 1.11035,-2.81289 1.12516,-1.125157 2.8277,-1.125157 h 4.85593 q 1.70254,0 2.81289,1.125157 1.12516,1.110351 1.12516,2.81289 v 7.8760939 q 0,1.7025391 -1.12516,2.8276953 -1.12515,1.11035155 -2.81289,1.11035155 h -4.85593 q -1.70254,0 -2.8277,-1.11035155 -1.11035,-1.1251562 -1.11035,-2.8276953 z m 4.69308,1.5248828 h 3.34586 q 2.11707,0 2.11707,-2.131875 v -6.6621097 q 0,-2.11707 -2.11707,-2.131875 h -3.34586 q -2.11707,0 -2.11707,2.131875 v 6.6621097 q 0,2.131875 2.11707,2.131875 z M 241.0992,0 v -2.4279687 h 6.81016 q 1.82097,0 1.82097,-1.8209766 0,-1.3916406 -1.82097,-1.8209765 l -3.33106,-0.7550391 q -1.64332,-0.3701172 -2.56121,-1.3472265 -0.91789,-0.9771094 -0.91789,-2.4427736 v -0.606992 q 0,-1.702539 1.11035,-2.812891 1.12516,-1.125156 2.8277,-1.125156 h 6.66211 v 1.67293 l -0.75504,0.755039 h -5.44813 q -1.82097,0 -1.82097,1.820976 0,1.391641 1.82097,1.820977 l 3.33106,0.755039 q 1.64332,0.3701172 2.56121,1.3472266 0.91789,0.9771093 0.91789,2.4427734 v 0.6069922 q 0,1.702539 -1.12516,2.8276952 Q 250.07084,0 248.3683,0 Z m -12.12622,0 v -2.4279687 h 6.81016 q 1.82097,0 1.82097,-1.8209766 0,-1.3916406 -1.82097,-1.8209765 l -3.33106,-0.7550391 q -1.64332,-0.3701172 -2.56121,-1.3472265 -0.91789,-0.9771094 -0.91789,-2.4427736 v -0.606992 q 0,-1.702539 1.11035,-2.812891 1.12516,-1.125156 2.8277,-1.125156 h 6.66211 v 1.67293 l -0.75504,0.755039 h -5.44813 q -1.82097,0 -1.82097,1.820976 0,1.391641 1.82097,1.820977 l 3.33106,0.755039 q 1.64332,0.3701172 2.56121,1.3472266 0.91789,0.9771093 0.91789,2.4427734 v 0.6069922 q 0,1.702539 -1.12516,2.8276952 Q 237.94462,0 236.24208,0 Z m -12.27427,-7.7280468 h 6.97301 L 220.17781,-18.653906 Z M 211.84277,0 v -1.3620312 l 6.67691,-19.8678908 h 3.33106 l 6.66211,19.8678908 V 0 h -2.41317 l -1.67292,-5.1520312 h -8.4979 L 214.27074,0 Z m -14.24448,-8.1869921 h 2.42797 q 2.11707,0 2.11707,-2.1170699 v -0.606993 q 0,-2.11707 -2.11707,-2.131875 h -2.42797 q -2.11707,0 -2.11707,2.131875 v 0.606993 q 0,2.1170699 2.11707,2.1170699 z m -0.90308,11.221953 h 4.23414 q 2.11707,0 2.11707,-2.13187497 0.0148,-2.11707033 -2.11707,-2.11707033 h -4.23414 q -2.11707,0 -2.11707,2.11707033 0,2.13187497 2.11707,2.13187497 z M 191.98732,1.5100781 V 0.29609375 q 0,-1.33242185 0.6514,-2.20589845 0.65141,-0.8734765 1.28801,-1.0659375 l 0.6366,-0.2072656 v -0.1480469 q -0.11844,-0.029609 -0.29609,-0.1184375 -0.17766,-0.1036328 -0.47375,-0.4737499 -0.28129,-0.3849219 -0.28129,-0.9326954 0,-0.5477734 0.25168,-0.9178906 0.25168,-0.3849218 0.53297,-0.47375 l 0.26648,-0.1184375 v -0.1480468 q -0.17765,-0.088828 -0.45894,-0.2960938 -0.26649,-0.2220703 -0.74024,-1.0511328 -0.45894,-0.8438672 -0.45894,-1.8357812 v -1.8209768 q 0,-1.702539 1.11035,-2.81289 1.12515,-1.125157 2.82769,-1.125157 h 3.33106 l 1.67293,-2.59082 h 2.26511 v 1.376836 L 202.30618,-15.16 v 0.148047 q 0.0888,0.02961 0.25168,0.07402 0.16285,0.04441 0.59219,0.296094 0.42934,0.236875 0.74023,0.592188 0.32571,0.340508 0.57739,1.006718 0.25168,0.666211 0.25168,1.524883 v 1.8209768 q 0,1.702539 -1.12516,2.8276953 -1.11035,1.1103515 -2.81289,1.1103515 h -3.64195 q -0.45895,0 -0.75504,0.3108985 -0.2961,0.2960937 -0.2961,0.755039 0,0.4441406 0.2961,0.7550391 0.3109,0.2960937 0.75504,0.2960937 h 4.55984 q 1.70254,0 2.81289,1.1251563 1.12516,1.1251562 1.12516,2.81289055 V 1.5100781 q 0,1.7025391 -1.12516,2.8276953 -1.12515,1.1251562 -2.81289,1.1251562 h -5.77383 q -1.70254,0 -2.82769,-1.1251562 -1.11035,-1.1251562 -1.11035,-2.8276953 z M 178.35102,0 v -15.16 h 1.82097 l 0.45895,1.67293 h 0.14804 q 0.0296,-0.08883 0.10364,-0.207266 0.074,-0.133242 0.37011,-0.47375 0.3109,-0.355312 0.68102,-0.606992 0.37012,-0.266484 0.99191,-0.47375 0.6218,-0.207266 1.34723,-0.207266 h 2.26512 q 1.70254,0 2.82769,1.125157 1.12516,1.110351 1.12516,2.81289 V 0 h -2.59082 v -10.911055 q 0,-2.11707 -2.11707,-2.131875 h -1.82098 q -1.36203,0 -2.2059,0.843868 -0.82906,0.829062 -0.82906,2.191093 V 0 Z m -5.59736,0 v -15.16 h 2.57601 V 0 Z m 0,-17.587969 v -3.331054 h 2.57601 v 3.331054 z m -8.92841,13.6499222 v -8.7939842 h -2.42797 V -15.16 h 2.57602 l 0.90308,-4.545039 h 1.52488 V -15.16 h 4.0861 v 1.67293 l -0.75504,0.755039 h -3.33106 v 8.186992 q 0,2.1170703 2.11707,2.1170703 h 2.42797 V 0 h -3.183 q -1.70254,0 -2.8277,-1.1103516 -1.11035,-1.1251562 -1.11035,-2.8276952 z m -13.48826,-4.5450391 h 7.26911 v -2.4279691 q 0,-2.11707 -2.11707,-2.131875 h -3.03497 q -2.11707,0 -2.11707,2.131875 z m -2.57601,4.5450391 v -7.5800002 q 0,-1.702539 1.11035,-2.81289 1.12516,-1.125157 2.8277,-1.125157 h 4.54503 q 1.70254,0 2.8277,1.125157 1.12516,1.110351 1.12516,2.81289 v 5.4481252 h -9.85993 v 1.5248828 q 0,2.1170703 2.11707,2.1170703 h 7.13586 V 0 h -7.89089 q -1.70254,0 -2.8277,-1.1103516 -1.11035,-1.1251562 -1.11035,-2.8276952 z M 134.71708,0 v -20.622929 h 2.57601 v 11.6808978 h 3.64196 L 144.42895,-15.16 h 2.11707 v 1.362031 l -3.33105,5.9218753 3.64195,6.5140625 V 0 H 144.577 l -3.64195,-6.5140624 h -3.64196 V 0 Z m -9.55,0 v -15.16 h 1.82098 l 0.45894,1.67293 h 0.14805 q 0.0296,-0.08883 0.10363,-0.207266 0.074,-0.133242 0.37012,-0.47375 0.3109,-0.355312 0.68102,-0.606992 0.37011,-0.266484 0.99191,-0.47375 0.6218,-0.207266 1.34723,-0.207266 h 2.42796 v 2.413164 h -2.73886 q -1.36203,0 -2.2059,0.843868 -0.82906,0.829062 -0.82906,2.191093 V 0 Z m -9.99435,-2.1170703 h 1.51008 q 1.36203,0 2.19109,-0.8290625 0.84387,-0.8438672 0.84387,-2.2058984 V -6.676914 h -4.54504 q -2.11707,0 -2.13187,2.131875 v 0.2960937 q 0.0148,2.131875 2.13187,2.131875 z m -4.70789,-1.5248828 v -1.5100781 q 0,-1.702539 1.12516,-2.8128906 1.12515,-1.1251562 2.81289,-1.1251562 h 5.31488 v -1.524883 q 0,-2.11707 -2.13187,-2.11707 h -5.90707 V -15.16 h 6.67691 q 1.70254,0 2.81289,1.125156 1.12516,1.125157 1.12516,2.812891 V 0 h -1.82098 l -0.45895,-1.6729297 h -0.14804 q -0.0296,0.088828 -0.10364,0.2220703 -0.074,0.1184375 -0.38492,0.47375003 -0.29609,0.34050781 -0.66621,0.60699219 -0.35531,0.25167968 -0.97711,0.4589453 -0.62179,0.20726563 -1.34722,0.20726563 h -1.98383 q -1.70254,0 -2.8277,-1.11035155 -1.11035,-1.1251562 -1.11035,-2.8276953 z M 86.065531,0 v -1.3620312 l 2.11707,-19.8678908 h 3.034961 l 6.114336,14.553008 h 0.162851 l 5.995901,-14.553008 h 3.03496 l 2.11707,19.8678908 V 0 h -2.72406 l -1.51008,-16.522031 h -0.16285 l -5.596175,13.4870701 h -2.59082 L 90.462523,-16.522031 H 90.299671 L 88.789593,0 Z M 71.524959,-3.9380468 V -12.732031 H 69.09699 V -15.16 h 2.576016 l 0.903086,-4.545039 h 1.524882 V -15.16 h 4.086094 v 1.67293 l -0.755039,0.755039 h -3.331055 v 8.186992 q 0,2.1170703 2.117071,2.1170703 h 2.427968 V 0 H 75.463006 Q 73.760467,0 72.63531,-1.1103516 71.524959,-2.2355078 71.524959,-3.9380468 Z M 60.45707,0 v -15.16 h 1.820977 l 0.458945,1.67293 h 0.148047 q 0.02961,-0.08883 0.103633,-0.207266 0.07402,-0.133242 0.370117,-0.47375 0.310899,-0.355312 0.681016,-0.606992 0.370117,-0.266484 0.991914,-0.47375 0.621797,-0.207266 1.347226,-0.207266 h 2.427969 v 2.413164 h -2.738867 q -1.362031,0 -2.205898,0.843868 -0.829063,0.829062 -0.829063,2.191093 V 0 Z M 47.881913,-8.4830859 h 7.269101 v -2.4279691 q 0,-2.11707 -2.11707,-2.131875 h -3.034961 q -2.11707,0 -2.11707,2.131875 z m -2.576016,4.5450391 v -7.5800002 q 0,-1.702539 1.110352,-2.81289 1.125156,-1.125157 2.827695,-1.125157 h 4.545039 q 1.702539,0 2.827695,1.125157 1.125156,1.110351 1.125156,2.81289 v 5.4481252 h -9.859921 v 1.5248828 q 0,2.1170703 2.11707,2.1170703 h 7.135859 V 0 h -7.890898 q -1.702539,0 -2.827695,-1.1103516 -1.110352,-1.1251562 -1.110352,-2.8276952 z m -12.27427,1.5100781 h 5.166836 q 2.11707,0 2.11707,-2.1170703 v -6.366016 q 0,-2.11707 -2.11707,-2.131875 h -2.131875 q -1.362031,0 -2.205899,0.843868 -0.829062,0.829062 -0.829062,2.191093 z M 30.455611,5.1520312 V -15.16 h 1.820977 l 0.458945,1.67293 h 0.148047 q 0.02961,-0.08883 0.103633,-0.207266 0.07402,-0.133242 0.370117,-0.47375 0.310898,-0.355312 0.681016,-0.606992 0.370117,-0.266484 0.991914,-0.47375 0.621797,-0.207266 1.347226,-0.207266 h 2.576016 q 1.702539,0 2.81289,1.125157 1.125157,1.110351 1.125157,2.81289 v 7.5800002 q 0,1.702539 -1.125157,2.8276952 Q 40.641236,0 38.953502,0 H 33.031627 V 5.1520312 Z M 16.212317,0 v -1.3620312 l 4.545039,-6.2179687 -4.086093,-6.2179691 V -15.16 h 2.279921 l 3.479102,5.7590235 h 0.148047 L 26.072239,-15.16 h 2.265117 v 1.362031 l -4.086093,5.9218753 4.545039,6.5140625 V 0 H 26.531184 L 22.578333,-6.0699218 H 22.430286 L 18.492239,0 Z M 2.7240625,0 V -21.229922 H 15.618945 v 1.820977 l -0.755039,0.755039 H 5.4629296 v 6.528867 h 7.2691014 v 2.5760157 H 5.4629296 v 6.9730077 H 15.618945 V 0 Z"
       transform="translate(349.76,196.04)"
       id="path14" />
  </g>
</svg>
