<svg xmlns="http://www.w3.org/2000/svg" xmlns:xlink="http://www.w3.org/1999/xlink" width="306.94" height="230.56" viewBox="0 0 306.94 230.56"><defs><style>.cls-1{fill:url(#Degradado_sin_nombre_4);}</style><linearGradient id="Degradado_sin_nombre_4" y1="115.28" x2="306.94" y2="115.28" gradientUnits="userSpaceOnUse"><stop offset="0.01" stop-color="#ff3600"/><stop offset="0.18" stop-color="#fe4206"/><stop offset="0.5" stop-color="#fb6314"/><stop offset="0.94" stop-color="#f6982c"/><stop offset="1" stop-color="#f5a130"/></linearGradient></defs><g id="Layer_2" data-name="Layer 2"><g id="Capa_1" data-name="Capa 1"><path class="cls-1" d="M33,230.56l36.24-47.27a19.43,19.43,0,0,1,15.46-7.62h80.1L177.69,151l-12.85-19.61-89-.16L64.56,148.68a15.22,15.22,0,0,1-21.19,2.83L6.06,123.4a15.22,15.22,0,0,1-3.58-20.47l5.75-8.81L44.94,38.88a20.43,20.43,0,0,1,4.37-4.72h0A20,20,0,0,1,55.06,31L139.68,1.13a19.85,19.85,0,0,1,6-1.12h0a19.81,19.81,0,0,1,6,.75L242,26.41a20.27,20.27,0,0,1,5.49,2.48h0a20.54,20.54,0,0,1,3.23,2.58l50.4,49.34a18.61,18.61,0,0,1,4,5.78h0a18.7,18.7,0,0,1,1.61,7.51l.22,66.43a15.47,15.47,0,0,1-2.19,8h0a15.49,15.49,0,0,1-6.78,6.11l-29.47,13.7a15.62,15.62,0,0,1-9.76,1.14h0A15.68,15.68,0,0,1,249,183l-29.54-43.22,34.47,23.05a18.74,18.74,0,0,0,18.24,1.47l14.33-6.56V95L236.83,46.17,146.29,20.45,62,50.18l-39.57,60,29.11,22,14-21.31H161a27.25,27.25,0,0,1,7.51,1.06h0a27.16,27.16,0,0,1,15.19,11.18l10.74,16.33A21.59,21.59,0,0,1,198,151.32h0a21.7,21.7,0,0,1-2.76,10.59l-12,21.4a24.65,24.65,0,0,1-15,11.74h0a24.85,24.85,0,0,1-6.48.86l-64.93,0a44.78,44.78,0,0,0-25.64,8.05Z"/></g></g></svg>