<?xml version="1.0" encoding="UTF-8" standalone="no"?>
<!-- Generator: Adobe Illustrator 25.4.1, SVG Export Plug-In . SVG Version: 6.00 Build 0)  -->

<svg
   version="1.1"
   id="Layer_1"
   x="0px"
   y="0px"
   viewBox="0 0 287.4 250"
   style="enable-background:new 0 0 287.4 250;"
   xml:space="preserve"
   sodipodi:docname="cube3d.svg"
   inkscape:version="1.2.1 (1:1.2.1+202210291244+9c6d41e410)"
   xmlns:inkscape="http://www.inkscape.org/namespaces/inkscape"
   xmlns:sodipodi="http://sodipodi.sourceforge.net/DTD/sodipodi-0.dtd"
   xmlns="http://www.w3.org/2000/svg"
   xmlns:svg="http://www.w3.org/2000/svg"><defs
   id="defs21" /><sodipodi:namedview
   id="namedview19"
   pagecolor="#505050"
   bordercolor="#eeeeee"
   borderopacity="1"
   inkscape:showpageshadow="0"
   inkscape:pageopacity="0"
   inkscape:pagecheckerboard="0"
   inkscape:deskcolor="#505050"
   showgrid="false"
   inkscape:zoom="1.4142136"
   inkscape:cx="58.689863"
   inkscape:cy="117.73328"
   inkscape:window-width="1366"
   inkscape:window-height="707"
   inkscape:window-x="0"
   inkscape:window-y="30"
   inkscape:window-maximized="1"
   inkscape:current-layer="Layer_2-2" />
<style
   type="text/css"
   id="style2">
	.st0{fill:#FF3600;}
	.st1{fill:#FF6700;}
	.st2{fill:#F5A130;}
	.st3{fill:#FFFFFF;}
</style>
<g
   id="Layer_2_00000149349127928653096120000011339000903361989291_">
	<g
   id="Layer_2-2">
		<polygon
   class="st0"
   points="181.1,127.6 106.3,247.5 181.1,250 287.4,188.2   "
   id="polygon4" />
		<polygon
   class="st1"
   points="212.6,182.3 106.3,247.5 106.3,122.4 212.6,60.6   "
   id="polygon6" />
		<polygon
   class="st2"
   points="0,182.3 106.3,247.5 106.3,122.4 0,60.6   "
   id="polygon8" />
		<polygon
   class="st0"
   points="106.3,0 0,60.6 106.3,122.4 212.6,60.6   "
   id="polygon10" />
		<g
   id="Layer_2_00000004538196896696568930000017205145748358876339_">
			<g
   id="Capa_1">
				<path
   class="st3"
   d="M20.4,176l9.8-10c1-1,2.6-1.3,4.2-0.9l21.8,6.2l3.5-5.7l-3.5-6.3l-24.2-7l-3.1,3.9c-1.4,1.4-4,1-5.8-0.9      l-10.1-10.5c-1.7-1.8-2.2-4.4-1-5.8l1.6-1.9l10-12.1c0.3-0.4,0.7-0.7,1.2-0.9l0,0c0.5-0.2,1-0.4,1.6-0.4l23-1.5      c0.5,0,1.1,0,1.6,0.2l0,0c0.6,0.1,1.1,0.4,1.6,0.7l24.5,14c0.5,0.3,1,0.7,1.5,1.1l0,0c0.3,0.3,0.6,0.6,0.9,1l13.7,17.3      c0.5,0.6,0.8,1.2,1.1,1.9l0,0c0.3,0.7,0.4,1.5,0.4,2.2l0.1,18.1c0,0.8-0.2,1.5-0.6,2l0,0c-0.4,0.6-1.1,1-1.8,1.1l-8,1.4      c-0.8,0.1-1.8,0-2.7-0.5l0,0c-1.1-0.5-2-1.4-2.6-2.5l-8-14l9.4,8.9c1.5,1.4,3.3,2.1,5,1.8l3.9-0.7v-17l-13.5-17.1l-24.6-14      l-22.9,1.5l-10.8,13.2l7.9,8.2l3.8-4.7l25.9,7.4c0.7,0.2,1.4,0.5,2,0.9l0,0c1.7,1,3.2,2.5,4.1,4.2l2.9,5.3c0.6,1.1,1,2.4,1,3.5      l0,0c0,1-0.3,1.9-0.7,2.7l-3.3,4.9c-0.9,1.3-2.3,2-4.1,2l0,0c-0.6,0-1.2-0.1-1.8-0.3l-17.6-5.1c-2.5-0.7-4.9-0.6-7,0.2L20.4,176      z"
   id="path12" />
			</g>
		</g>
	</g>
</g>
</svg>
