<?xml version="1.0" encoding="UTF-8" standalone="no"?>
<!-- Created with Inkscape (http://www.inkscape.org/) -->

<svg
   version="1.1"
   id="svg294"
   width="50.157349"
   height="56.102356"
   viewBox="0 0 50.157349 56.102356"
   xmlns="http://www.w3.org/2000/svg"
   xmlns:svg="http://www.w3.org/2000/svg">
  <defs
     id="defs298">
    <clipPath
       clipPathUnits="userSpaceOnUse"
       id="clipPath6640">
      <path
         d="M 0,0 H 750 V 500 H 0 Z"
         id="path6638" />
    </clipPath>
  </defs>
  <g
     id="g302"
     transform="matrix(1.3333333,0,0,-1.3333333,-702.27496,158.7498)">
    <g
       id="g6634">
      <g
         id="g6636"
         clip-path="url(#clipPath6640)">
        <g
           id="g6854"
           transform="translate(538.9355,87.9346)">
          <path
             d="m 0,0 c 0.671,0 1.3,-0.26 1.771,-0.731 l 0.356,-0.356 c 0.472,-0.472 0.731,-1.101 0.73,-1.77 0,-0.671 -0.259,-1.3 -0.731,-1.771 l -2.399,-2.4 c -0.586,-0.586 -0.586,-1.541 0,-2.128 l 0.354,-0.355 c 0.565,-0.564 1.563,-0.565 2.129,0 l 21.739,21.738 c 0.587,0.586 0.587,1.542 0,2.129 l -0.353,0.352 c -0.563,0.567 -1.562,0.567 -2.129,10e-4 l -3.804,-3.804 c -0.944,-0.943 -2.601,-0.941 -3.543,0 l -0.355,0.356 c -0.975,0.975 -0.976,2.564 10e-4,3.542 l 9.713,9.71 c 0.283,0.283 0.438,0.661 0.438,1.065 0,0.403 -0.155,0.781 -0.438,1.064 l -0.356,0.355 c -0.564,0.565 -1.561,0.565 -2.128,0 l -5.576,-5.576 c -0.943,-0.943 -2.599,-0.943 -3.544,0 l -0.354,0.353 c -0.975,0.979 -0.975,2.568 0,3.543 l 1.915,1.912 c 0.585,0.588 0.585,1.543 0,2.129 l -0.355,0.353 c -0.566,0.568 -1.563,0.567 -2.13,0.001 L -8.543,10.221 C -8.826,9.938 -8.981,9.56 -8.981,9.156 c 0,-0.403 0.155,-0.781 0.438,-1.063 l 0.355,-0.356 c 0.562,-0.563 1.562,-0.565 2.128,0 l 4.88,4.881 c 0.945,0.943 2.599,0.945 3.543,0 l 0.355,-0.352 c 0.976,-0.979 0.975,-2.569 0,-3.544 L -10.79,-4.784 c -0.586,-0.587 -0.586,-1.542 10e-4,-2.129 l 0.353,-0.354 c 0.567,-0.564 1.564,-0.566 2.13,0 l 6.535,6.536 C -1.299,-0.26 -0.67,0 0,0 m 1.146,-10.949 c -0.671,0 -1.3,0.26 -1.773,0.731 l -0.354,0.355 c -0.976,0.977 -0.975,2.566 0.001,3.542 l 2.399,2.4 c 0.283,0.282 0.438,0.66 0.438,1.064 0,0.403 -0.155,0.781 -0.437,1.063 l -0.356,0.356 c -0.563,0.563 -1.562,0.564 -2.127,0 l -6.536,-6.536 c -0.943,-0.944 -2.599,-0.942 -3.544,0 l -0.353,0.354 c -0.977,0.976 -0.978,2.565 -10e-4,3.543 L 2.011,9.429 c 0.586,0.587 0.587,1.542 10e-4,2.129 L 1.657,11.91 c -0.566,0.568 -1.563,0.565 -2.13,10e-4 L -5.353,7.03 c -0.944,-0.943 -2.6,-0.941 -3.543,0 l -0.355,0.356 c -0.471,0.47 -0.73,1.099 -0.73,1.77 0,0.671 0.259,1.3 0.731,1.772 l 19.494,19.491 c 0.945,0.945 2.601,0.945 3.544,0 l 0.355,-0.353 c 0.975,-0.976 0.975,-2.565 0,-3.544 L 12.229,24.61 c -0.586,-0.586 -0.586,-1.541 0,-2.129 l 0.353,-0.353 c 0.566,-0.566 1.564,-0.566 2.13,0 l 5.576,5.576 c 0.943,0.943 2.6,0.943 3.543,0 l 0.356,-0.355 c 0.47,-0.471 0.73,-1.1 0.73,-1.771 0,-0.671 -0.26,-1.3 -0.731,-1.772 l -9.713,-9.71 c -0.586,-0.587 -0.586,-1.542 0,-2.128 l 0.355,-0.356 c 0.563,-0.564 1.562,-0.565 2.128,0 l 3.804,3.804 c 0.943,0.943 2.601,0.943 3.543,0 l 0.353,-0.352 c 0.977,-0.978 0.977,-2.568 0,-3.544 L 2.917,-10.218 c -0.472,-0.471 -1.101,-0.731 -1.771,-0.731"
             style="fill:#3eccfc;fill-opacity:1;fill-rule:nonzero;stroke:none"
             id="path6856" />
        </g>
      </g>
    </g>
  </g>
</svg>
